<?xml version="1.0" standalone="no"?>
<!DOCTYPE svg PUBLIC "-//W3C//DTD SVG 20010904//EN"
 "http://www.w3.org/TR/2001/REC-SVG-20010904/DTD/svg10.dtd">
<svg version="1.0" xmlns="http://www.w3.org/2000/svg"
 width="1000.000000pt" height="1000.000000pt" viewBox="0 0 1000.000000 1000.000000"
 preserveAspectRatio="xMidYMid meet">

<g transform="translate(0.000000,1000.000000) scale(0.100000,-0.100000)"
fill="#000000" stroke="none">
<path d="M1140 8855 l-685 -685 1013 -1013 c556 -556 1012 -1017 1012 -1022 0
-6 -16 -47 -35 -92 -80 -192 -144 -433 -181 -688 -27 -183 -25 -553 5 -745 65
-427 204 -791 434 -1138 l81 -123 334 334 334 334 -31 50 c-78 126 -157 321
-202 495 -68 268 -66 622 6 895 173 660 684 1162 1350 1327 252 62 610 61 863
-3 174 -45 369 -124 495 -202 l50 -31 334 334 334 334 -133 88 c-146 96 -397
224 -551 281 -645 237 -1350 230 -1983 -21 -62 -24 -116 -44 -121 -44 -4 0
-463 455 -1018 1010 -555 556 -1012 1010 -1015 1010 -3 0 -313 -308 -690 -685z"/>
<path d="M6876 6311 l-329 -329 20 -28 c43 -61 134 -257 172 -371 218 -654 59
-1361 -417 -1855 -494 -513 -1230 -693 -1905 -467 -114 38 -310 129 -371 172
l-28 20 -329 -329 c-181 -181 -328 -333 -326 -339 7 -23 244 -171 397 -248
427 -215 854 -309 1330 -294 334 11 618 69 924 189 l128 51 1014 -1014 1014
-1014 687 688 688 687 -1014 1014 -1014 1014 51 128 c83 213 140 432 173 674
18 125 18 555 1 675 -50 352 -140 637 -292 934 -69 133 -215 362 -235 368 -6
2 -158 -145 -339 -326z"/>
<path d="M4786 6184 c-427 -77 -787 -389 -925 -800 -159 -473 -5 -1010 378
-1315 361 -290 827 -354 1248 -172 261 114 498 350 614 613 316 716 -124 1540
-895 1675 -109 19 -313 18 -420 -1z" fill="red"/>
</g>
</svg>
